<svg width="22" height="23" viewBox="0 0 22 23" fill="none" xmlns="http://www.w3.org/2000/svg">
<path d="M18.392 6.832C18.392 9.09333 17.4213 10.8853 15.48 12.208C13.56 13.5093 10.744 14.2027 7.032 14.288V20.848L10.52 20.88V22H0.152V20.88L1.72 20.848V1.712L0.152 1.68V0.559999L6.328 0.623999L11.096 0.4C12.632 0.4 13.944 0.688 15.032 1.264C16.1413 1.84 16.9733 2.61867 17.528 3.6C18.104 4.58133 18.392 5.65867 18.392 6.832ZM12.696 7.76C12.696 6.62933 12.4507 5.60533 11.96 4.688C11.4693 3.74933 10.7867 3.01333 9.912 2.48C9.05867 1.94667 8.09867 1.68 7.032 1.68V13.04C8.80267 12.9333 10.1893 12.4213 11.192 11.504C12.1947 10.5653 12.696 9.31733 12.696 7.76ZM16.7138 18.16L21.3858 17.104V21.648L16.7138 22.352V18.16Z" fill="#5162FF"/>
</svg>
