<svg width="112" height="24" viewBox="0 0 112 24" fill="none" xmlns="http://www.w3.org/2000/svg">
<path d="M18.392 7.832C18.392 10.0933 17.4213 11.8853 15.48 13.208C13.56 14.5093 10.744 15.2027 7.032 15.288V21.848L10.52 21.88V23H0.152V21.88L1.72 21.848V2.712L0.152 2.68V1.56L6.328 1.624L11.096 1.4C12.632 1.4 13.944 1.688 15.032 2.264C16.1413 2.84 16.9733 3.61867 17.528 4.6C18.104 5.58133 18.392 6.65867 18.392 7.832ZM12.696 8.76C12.696 7.62933 12.4507 6.60533 11.96 5.688C11.4693 4.74933 10.7867 4.01333 9.912 3.48C9.05867 2.94667 8.09867 2.68 7.032 2.68V14.04C8.80267 13.9333 10.1893 13.4213 11.192 12.504C12.1947 11.5653 12.696 10.3173 12.696 8.76ZM26.8773 8.12C28.7546 8.12 30.2266 8.80267 31.2933 10.168C32.3813 11.512 32.9146 13.336 32.8933 15.64L24.0613 15.928C24.2106 17.1867 24.6479 18.1467 25.3733 18.808C26.0986 19.4693 27.0586 19.8 28.2533 19.8C29.9173 19.8 31.2719 19.3413 32.3173 18.424L32.8933 18.936C32.1466 20.3653 31.1333 21.4853 29.8533 22.296C28.5946 23.0853 27.2506 23.48 25.8213 23.48C23.8799 23.48 22.3333 22.84 21.1813 21.56C20.0506 20.2587 19.4853 18.5093 19.4853 16.312C19.4853 15.0107 19.7413 13.72 20.2533 12.44C20.7866 11.16 21.4586 10.0933 22.2693 9.24C22.8239 8.92 23.5386 8.65333 24.4133 8.44C25.2879 8.22667 26.1093 8.12 26.8773 8.12ZM28.1573 14.584C28.1359 13.0907 27.9226 11.9067 27.5173 11.032C27.1119 10.1573 26.5359 9.63467 25.7893 9.464C25.2559 10.0187 24.8186 10.7973 24.4773 11.8C24.1573 12.7813 23.9973 13.7947 23.9973 14.84V14.936L28.1573 14.584ZM42.6267 19.8C43.9494 19.8 45.2401 19.32 46.4988 18.36L47.0108 18.936C46.2214 20.3013 45.2294 21.4 44.0348 22.232C42.8614 23.064 41.5921 23.48 40.2268 23.48C38.3068 23.48 36.7708 22.84 35.6188 21.56C34.4881 20.2587 33.9228 18.5093 33.9228 16.312C33.9228 15.0107 34.1894 13.72 34.7228 12.44C35.2561 11.16 35.9388 10.0933 36.7708 9.24C37.4961 8.87733 38.2534 8.6 39.0428 8.408C39.8321 8.216 40.5894 8.12 41.3148 8.12C42.5734 8.12 43.6934 8.46133 44.6748 9.144C45.6561 9.82667 46.4454 10.8187 47.0428 12.12L43.3628 14.264C43.0214 13.304 42.5628 12.3333 41.9868 11.352C41.4108 10.3707 40.9094 9.69867 40.4828 9.336C39.9281 9.86933 39.4481 10.648 39.0428 11.672C38.6588 12.6747 38.4668 13.7093 38.4668 14.776C38.4668 16.4187 38.8294 17.6667 39.5548 18.52C40.2801 19.3733 41.3041 19.8 42.6267 19.8ZM62.9093 22.072V23H56.0613V22.072L57.2453 21.976V15.224C57.2453 14.2853 56.9786 13.56 56.4453 13.048C55.9333 12.536 55.2186 12.2693 54.3013 12.248L53.2453 13.304L53.1813 21.976L54.3653 22.072V23H47.4853V22.072L48.6693 21.976L48.5093 2.808L47.2933 3.064L46.9733 2.136L52.8933 0.344L53.3413 1.112L53.2453 11.768L55.8373 8.056C57.8639 8.056 59.3573 8.536 60.3173 9.496C61.2773 10.456 61.7573 11.9387 61.7573 13.944V21.976L62.9093 22.072ZM79.7963 20.76L75.3163 23.384C73.9723 22.296 72.8736 20.6107 72.0203 18.328L71.6683 17.336L69.5883 18.232L69.5563 21.976L70.7403 22.072V23H63.8603V22.072L65.0443 21.976L64.8843 2.808L63.6683 3.064L63.3483 2.136L69.2683 0.344L69.7163 1.112L69.6203 13.08L73.8763 8.024C75.3696 8.45067 76.4683 9.19733 77.1723 10.264C77.8976 11.3307 78.2603 12.7493 78.2603 14.52L75.3483 15.768L75.5403 16.152C75.8816 16.9627 76.3403 17.752 76.9163 18.52C77.4923 19.288 78.0469 19.8747 78.5803 20.28L79.4443 19.8L79.7963 20.76ZM69.5883 17.048L73.9083 15C73.9083 14.5307 73.7269 14.0187 73.3643 13.464C73.0229 12.9093 72.6069 12.568 72.1163 12.44L69.6203 14.616L69.5883 17.048ZM80.8388 19.16L85.5108 18.104V22.648L80.8388 23.352V19.16ZM89.2773 1.848L93.3733 0.919998V4.568L89.2773 5.176V1.848ZM93.6933 21.976L94.8773 22.072V23H87.9973V22.072L89.1813 21.976L89.0853 10.584L87.8693 10.84L87.5493 9.912L93.3413 8.12L93.7893 8.888L93.6933 21.976ZM111.885 22.072V23H105.037V22.072L106.221 21.976V15.224C106.221 14.2853 105.954 13.56 105.421 13.048C104.909 12.536 104.194 12.2693 103.277 12.248L102.253 13.304L102.125 21.976L103.309 22.072V23H96.4288V22.072L97.6128 21.976L97.5168 10.52L96.3008 10.808L95.9808 9.848L101.037 8.28L102.157 11.864L104.813 8.056C106.839 8.056 108.333 8.536 109.293 9.496C110.253 10.456 110.733 11.9387 110.733 13.944V21.976L111.885 22.072Z" fill="#5162FF"/>
</svg>
